<?xml version="1.0" standalone="no"?>
<!DOCTYPE svg PUBLIC "-//W3C//DTD SVG 20010904//EN"
 "http://www.w3.org/TR/2001/REC-SVG-20010904/DTD/svg10.dtd">
<svg version="1.0" xmlns="http://www.w3.org/2000/svg"
 width="1224.000000pt" height="347.000000pt" viewBox="0 0 1224.000000 347.000000"
 preserveAspectRatio="xMidYMid meet">
<metadata>
Created by potrace 1.15, written by Peter Selinger 2001-2017
</metadata>
<g transform="translate(0.000000,347.000000) scale(0.100000,-0.100000)"
fill="#000000" stroke="none">
<path d="M10237 2564 c-27 -214 -27 -232 -27 -766 l0 -548 -280 0 -280 0 0
247 0 247 -56 96 c-83 140 -67 130 -209 130 -141 0 -123 11 -211 -130 l-59
-95 -5 -330 -5 -330 -70 0 -70 0 -3 38 -3 37 -69 0 c-64 0 -69 2 -72 23 -3 20
-9 22 -65 25 l-62 3 -3 57 -3 57 -67 3 -67 3 -3 -53 -3 -53 -40 0 -40 0 -3 48
-3 47 -69 0 -70 0 -2 361 -3 362 -75 26 -75 26 -5 65 c-4 58 -7 65 -27 68 -13
2 -23 6 -23 10 0 4 -7 68 -15 142 -8 74 -15 144 -16 155 -3 40 -17 -73 -24
-192 l-7 -123 -44 0 -44 0 0 -69 0 -68 -52 -15 -53 -15 -5 -359 -5 -359 -42
-3 -43 -3 -2 408 -3 408 -287 3 -288 2 0 35 c0 33 -2 35 -35 35 -28 0 -35 4
-35 19 0 13 -23 30 -86 60 -82 39 -90 41 -181 41 -91 0 -97 -1 -128 -29 -24
-21 -48 -30 -89 -35 -45 -6 -56 -11 -56 -26 0 -10 -9 -20 -20 -23 -18 -5 -20
-14 -20 -106 l0 -101 -145 0 -145 0 0 -165 0 -165 -85 0 c-78 0 -85 2 -85 20
0 19 -7 20 -200 20 l-200 0 0 185 0 185 -451 0 -452 0 -73 -41 -74 -40 0 -185
0 -184 -90 0 -90 0 0 54 0 55 -42 3 -43 3 -3 53 -3 52 -35 0 c-31 0 -34 2 -34
30 l0 30 -84 0 -85 0 -3 -37 c-3 -35 -6 -38 -35 -41 -32 -3 -33 -4 -33 -53 l0
-49 -110 0 -110 0 0 -250 0 -250 -75 0 -75 0 0 60 0 60 -65 0 -65 0 0 35 0 35
-80 0 -80 0 0 -40 0 -40 -40 0 c-33 0 -40 3 -40 20 0 19 -7 20 -115 20 l-115
0 0 -25 c0 -23 -4 -24 -63 -27 l-62 -3 -3 -117 -3 -118 -169 0 -170 0 0 79 c0
51 -4 82 -12 88 -7 5 -43 22 -80 38 l-68 28 -2 471 -3 471 -72 3 -73 3 0 69 0
70 -85 0 -85 0 -2 167 c-2 120 -6 167 -15 170 -10 4 -13 -37 -15 -169 l-3
-173 -97 -3 -97 -3 -3 -72 -3 -72 -72 -3 -73 -3 0 -624 0 -625 -823 0 -824 0
-6 -97 c-4 -54 -7 -176 -7 -270 l0 -173 6020 0 6020 0 0 250 0 250 -305 0
-305 0 0 70 0 70 -275 0 -275 0 0 628 0 627 -35 194 c-19 107 -37 196 -39 198
-5 5 -12 -62 -27 -229 l-12 -138 -257 0 -257 0 -28 173 c-16 94 -31 180 -35
191 -3 10 -18 -80 -33 -200z"/>
</g>
</svg>
